# xmcd CD database file
#
# Track frame offsets:
#	150
#	15325
#	29764
#	49212
#	62098
#	84165
#	103891
#	123178
#	143988
#
# Disc length: 2204 seconds
#
# Revision: 3
# Processed by: cddbd v1.5.2PL0 Copyright (c) Steve Scherf et al.
# Submitted via: CDex 1.70beta3
#
DISCID=74089a09
DTITLE=とよしまハウス - Falcom Collection イース vs 英雄伝説
DYEAR=2004
DGENRE=Game
TTITLE0=OLHA ～ RELEASE OF THE FAR WEST OCEAN (Ys VI) ／ とよしま
TTITLE1=COMPANILE OF LANE (Ys II) ／ ごんぞ
TTITLE2=GRATITUDE FOR NATURE'S BLESSINGS (Ys VI) ／ とよしま
TTITLE3=RUINS OF MOONDORIA (Ys II) ／ ごんぞ
TTITLE4=SUBTERRANEAN CANAL (Ys II) ／ 桜庭“姫”未那, ぴよみず, とよしま
TTITLE5=ストッパー (英雄伝説II) ／ RICE
TTITLE6=神の声 (英雄伝説) ／ とよしま
TTITLE7=旅立ちの小径 (英雄伝説VI 空の軌跡) ／ SASH
TTITLE8=星の在り処 ～ 虚ろなる光の封土 (英雄伝説VI 空の軌跡) ／ Kapapoo-FX
EXTD=YEAR: 2004
EXTT0=
EXTT1=
EXTT2=
EXTT3=
EXTT4=
EXTT5=
EXTT6=
EXTT7=
EXTT8=
PLAYORDER=
